# xmcd
#
# Track frame offsets:
#	150
#	15077
#	28799
#
# Disc length: 582 seconds
#
# Revision: 0
# Processed by: cddbd v1.5.2PL0 Copyright (c) Steve Scherf et al.
# Submitted via: audiograbber 1.83.01
#
DISCID=13024403
DTITLE=Ekki Göpelt - Du raubtest mir den Winterschlaf
DYEAR=2011
DGENRE=Pop
TTITLE0=Du raubtest mir den Winterschlaf
TTITLE1=Wenn die Nacht uns umarmt
TTITLE2=Du raubtest mir den Winterschlaf (X-mas-Mix)
EXTD=
EXTT0=
EXTT1=
EXTT2=
PLAYORDER=
